<svg height="600pt" preserveAspectRatio="xMidYMid meet" viewBox="0 0 600 600" width="600pt" xmlns="http://www.w3.org/2000/svg"><path d="m2870 5994c-14-2-59-9-100-15-119-17-130-19-230-39-52-11-108-22-125-25-49-9-62-13-230-55-88-23-167-43-176-45-8-2-74-20-145-40s-136-38-144-40c-63-14-487-142-730-221-75-24-139-44-143-44-12 0-129-57-159-77-76-52-140-126-184-212-43-84-62-167-79-336-25-244-29-328-29-615-1-363 3-422 50-785 4-33 26-158 39-225 87-443 218-825 418-1225 44-88 98-188 119-223 21-34 38-65 38-68 0-22 283-428 388-554 29-36 67-82 83-102 84-101 328-346 449-450 58-50 116-100 130-112 126-108 386-280 548-361 291-146 422-146 716 5 64 33 154 83 199 112 107 68 321 227 424 317 46 39 86 71 90 71s138-130 298-290c329-327 338-333 465-334 126-1 144 11 456 326 305 307 310 314 308 443-2 120-9 130-380 502l-331 332 70 117c60 103 237 444 237 458 0 3 12 31 26 63 15 32 32 72 39 88 25 58 103 281 139 395 65 209 141 546 161 710 3 25 7 54 9 65s7 49 11 85c3 36 8 76 10 90 27 191 27 876 0 1085-2 17-7 55-10 85-20 187-28 225-62 299-75 167-189 262-396 331-290 98-1069 328-1237 365-8 2-91 22-185 44-163 39-403 86-489 96-56 7-325 13-356 9zm300-1238c14-3 72-15 130-27 178-36 458-115 844-237 158-51 215-73 237-94 16-16 29-32 30-36 0-4 2-16 4-27 28-155 41-587 23-776-38-388-131-730-288-1054-97-200-245-435-356-565-12-14-43-50-69-80-187-219-519-479-678-533-46-15-51-15-99 3-181 69-474 304-691 555-327 377-578 913-653 1390-4 28-9 52-9 55-1 3-5 32-9 65-5 33-10 67-11 75-24 133-24 575 0 775 20 160 18 158 210 223 163 54 472 149 580 177 402 106 502 124 655 120 69-1 136-6 150-9z" transform="matrix(.1 0 0 -.1 0 600)"/></svg>