<svg clip-rule="evenodd" stroke-linecap="round" stroke-linejoin="round" stroke-miterlimit="10" viewBox="0 0 1920 690" xmlns="http://www.w3.org/2000/svg" xmlns:xlink="http://www.w3.org/1999/xlink"><clipPath id="a"><path clip-rule="evenodd" d="m0 0h1920v690h-1920z"/></clipPath><g clip-path="url(#a)"><g fill="#4c9bff"><path d="m354.974 180.997c-3.842 6.12-7.876 10.71-12.103 13.77-4.226 3.06-9.669 4.59-16.329 4.59-5.892 0-12.231-1.849-19.019-5.546-6.788-3.698-14.473-7.842-23.054-12.432s-18.379-8.734-29.393-12.432c-11.015-3.697-23.566-5.546-37.654-5.546-24.335 0-42.457 5.164-54.368 15.492s-17.867 24.289-17.867 41.885c0 11.221 3.586 20.529 10.759 27.924 7.172 7.395 16.585 13.771 28.24 19.126s24.975 10.264 39.96 14.727c14.984 4.462 30.289 9.435 45.915 14.918 15.625 5.483 30.93 11.922 45.915 19.317 14.984 7.395 28.304 16.831 39.959 28.306 11.655 11.476 21.068 25.437 28.241 41.886 7.172 16.448 10.758 36.275 10.758 59.481 0 25.756-4.483 49.855-13.448 72.296s-21.965 42.013-38.999 58.716-38.038 29.836-63.013 39.399-53.343 14.345-85.106 14.345c-17.418 0-35.157-1.786-53.215-5.356-18.059-3.57-35.541-8.606-52.447-15.109-16.9059-6.503-32.7873-14.217-47.644-23.142-14.8567-8.926-27.7923-18.871-38.8068-29.837l38.4226-60.437c2.8176-4.59 6.788-8.288 11.911-11.093s10.6302-4.208 16.5217-4.208c7.6845 0 15.4331 2.423 23.2456 7.268 7.8129 4.845 16.6499 10.2 26.5119 16.066 9.862 5.865 21.196 11.22 34.004 16.065 12.807 4.845 27.92 7.268 45.338 7.268 23.566 0 41.881-5.164 54.945-15.492 13.063-10.328 19.595-26.712 19.595-49.153 0-13.006-3.586-23.589-10.758-31.749s-16.586-14.918-28.241-20.273c-11.655-5.356-24.91-10.073-39.767-14.154-14.857-4.08-30.098-8.606-45.723-13.579s-30.866-11.093-45.723-18.361c-14.8566-7.268-28.1124-16.83-39.7672-28.688-11.6549-11.858-21.0684-26.649-28.2406-44.372-7.1722-17.724-10.7584-39.591-10.7584-65.602 0-20.911 4.2265-41.312 12.6795-61.203 8.453-19.89 20.8763-37.614 37.2699-53.169 16.3936-15.5561 36.5018-27.9879 60.3238-37.2958s51.102-13.9618 81.84-13.9618c17.162 0 33.876 1.3388 50.141 4.0164 16.266 2.6776 31.699 6.6303 46.299 11.858 14.601 5.2277 28.241 11.4755 40.92 18.7433 12.68 7.2679 24.015 15.4919 34.004 24.6719z"/><path d="m791.971 61.6514v101.7816h-229.921v133.099h176.093v97.867h-176.093v135.839h229.921v101.782h-360.645v-570.3686z"/><path d="m1917.28 61.6514v103.1326h-157.77v466.979l-128.31-.001-1.76-466.978h-157.78v-103.1326z"/></g><path d="m1131.66 4.94524c-29.51-.00005-78.83 11.35166-125.24 23.96836-41.449 11.4073-82.624 23.8285-123.476 37.2232-24.01 7.929-41.363 28.8876-44.652 53.9582-25.49 191.474 33.648 333.369 105.413 427.246 30.433 40.158 66.755 75.516 107.685 104.905 14.15 10.17 29.13 19.127 44.81 26.745 12.01 5.645 24.85 10.283 35.46 10.283s23.45-4.638 35.42-10.283c15.68-7.618 30.7-16.575 44.85-26.745 14.91-10.707 29.19-22.209 42.82-34.447l62.79 62.795c13.4 13.402 35.16 13.403 48.56 0l53.37-53.372c13.41-13.402 13.41-35.159 0-48.562l-71.82-71.827c58.06-92.459 99.4-220.994 77.34-386.738-3.29-25.0705-20.64-46.0292-44.65-53.9582-28.15-9.1952-76.01-24.3927-123.48-37.2232-46.41-12.6167-95.69-23.96836-125.2-23.96836zm-1.05 140.24176c14.73 0 43.03 6.346 73.83 14.931 30.16 8.414 60.69 18.343 78.75 24.418 4.86 1.609 8.39 5.909 9.11 11.102 15.37 118.565-20.17 205.083-62.54 262.041-17.94 24.368-39.31 45.871-63.44 63.723-9.6 6.931-18.13 11.964-24.79 15.187-3.33 1.625-6.04 2.704-8.15 3.36-.9.317-1.83.566-2.77.723-.96-.146-1.91-.395-2.82-.723-2.08-.656-4.82-1.735-8.15-3.36-6.69-3.223-15.15-8.227-24.75-15.187-24.12-17.852-45.54-39.355-63.48-63.723-42.369-56.987-77.86-143.476-62.488-262.041.716-5.19 4.252-9.487 9.104-11.102 26.044-8.788 52.284-16.931 78.714-24.418 30.8-8.585 59.16-14.931 73.87-14.931z" fill="#f14668" fill-opacity=".860451"/></g></svg>